HIERARCHY
ROOT hip
{
  OFFSET 293.573 80.3666 -48.4273
  CHANNELS 6 Xposition Yposition Zposition Zrotation Xrotation Yrotation
  JOINT abdomen
  {
    OFFSET 0 20.6881 -0.73152
    CHANNELS 3 Zrotation Xrotation Yrotation
    JOINT chest
    {
      OFFSET 0 11.7043 -0.48768
      CHANNELS 3 Zrotation Xrotation Yrotation
      JOINT neck
      {
        OFFSET 0 22.1894 -2.19456
        CHANNELS 3 Zrotation Xrotation Yrotation
        JOINT head
        {
          OFFSET -0.24384 7.07133 1.2192
          CHANNELS 3 Zrotation Xrotation Yrotation
          JOINT leftEye
          {
            OFFSET 4.14528 8.04674 8.04672
            CHANNELS 3 Zrotation Xrotation Yrotation
            End Site
            {
              OFFSET 1 0 0
            }
          }
          JOINT rightEye
          {
            OFFSET -3.6576 8.04674 8.04672
            CHANNELS 3 Zrotation Xrotation Yrotation
            End Site
            {
              OFFSET 1 0 0
            }
          }
        }
      }
      JOINT rCollar
      {
        OFFSET -2.68224 19.2634 -4.8768
        CHANNELS 3 Zrotation Xrotation Yrotation
        JOINT rShldr
        {
          OFFSET -8.77824 -1.95073 1.46304
          CHANNELS 3 Zrotation Xrotation Yrotation
          JOINT rForeArm
          {
            OFFSET -28.1742 -1.7115 0.48768
            CHANNELS 3 Zrotation Xrotation Yrotation
            JOINT rHand
            {
              OFFSET -22.5879 0.773209 7.07136
              CHANNELS 3 Zrotation Xrotation Yrotation
              JOINT rThumb1
              {
                OFFSET -1.2192 -0.487915 3.41376
                CHANNELS 3 Zrotation Xrotation Yrotation
                JOINT rThumb2
                {
                  OFFSET -3.37035 -0.52449 3.41376
                  CHANNELS 3 Zrotation Xrotation Yrotation
                  End Site
                  {
                    OFFSET -1.78271 -1.18214 1.43049
                  }
                }
              }
              JOINT rIndex1
              {
                OFFSET -7.75947 0.938293 5.60832
                CHANNELS 3 Zrotation Xrotation Yrotation
                JOINT rIndex2
                {
                  OFFSET -2.54057 -0.884171 1.56538
                  CHANNELS 3 Zrotation Xrotation Yrotation
                  End Site
                  {
                    OFFSET -1.62519 -0.234802 1.16502
                  }
                }
              }
              JOINT rMid1
              {
                OFFSET -8.24714 1.18213 3.41376
                CHANNELS 3 Zrotation Xrotation Yrotation
                JOINT rMid2
                {
                  OFFSET -3.10165 -0.590103 1.0647
                  CHANNELS 3 Zrotation Xrotation Yrotation
                  End Site
                  {
                    OFFSET -2.48547 -0.328903 0.83742
                  }
                }
              }
              JOINT rRing1
              {
                OFFSET -8.82822 0.546677 1.51678
                CHANNELS 3 Zrotation Xrotation Yrotation
                JOINT rRing2
                {
                  OFFSET -2.60934 -0.819778 -0.0198488
                  CHANNELS 3 Zrotation Xrotation Yrotation
                  End Site
                  {
                    OFFSET -2.33842 -0.294052 0.168128
                  }
                }
              }
              JOINT rPinky1
              {
                OFFSET -8.27202 -0.0477905 -0.4584
                CHANNELS 3 Zrotation Xrotation Yrotation
                JOINT rPinky2
                {
                  OFFSET -1.82734 -0.647385 -0.700984
                  CHANNELS 3 Zrotation Xrotation Yrotation
                  End Site
                  {
                    OFFSET -1.69225 -0.51767 -0.607171
                  }
                }
              }
            }
          }
        }
      }
      JOINT lCollar
      {
        OFFSET 2.68224 19.2634 -4.8768
        CHANNELS 3 Zrotation Xrotation Yrotation
        JOINT lShldr
        {
          OFFSET 8.77824 -1.95073 1.46304
          CHANNELS 3 Zrotation Xrotation Yrotation
          JOINT lForeArm
          {
            OFFSET 28.1742 -1.7115 0.48768
            CHANNELS 3 Zrotation Xrotation Yrotation
            JOINT lHand
            {
              OFFSET 22.5879 0.773209 7.07136
              CHANNELS 3 Zrotation Xrotation Yrotation
              JOINT lThumb1
              {
                OFFSET 1.2192 -0.487915 3.41376
                CHANNELS 3 Zrotation Xrotation Yrotation
                JOINT lThumb2
                {
                  OFFSET 3.37035 -0.52449 3.41376
                  CHANNELS 3 Zrotation Xrotation Yrotation
                  End Site
                  {
                    OFFSET 1.78271 -1.18214 1.43049
                  }
                }
              }
              JOINT lIndex1
              {
                OFFSET 7.75947 0.938293 5.60832
                CHANNELS 3 Zrotation Xrotation Yrotation
                JOINT lIndex2
                {
                  OFFSET 2.54057 -0.884171 1.56538
                  CHANNELS 3 Zrotation Xrotation Yrotation
                  End Site
                  {
                    OFFSET 1.62519 -0.234802 1.16502
                  }
                }
              }
              JOINT lMid1
              {
                OFFSET 8.24714 1.18213 3.41376
                CHANNELS 3 Zrotation Xrotation Yrotation
                JOINT lMid2
                {
                  OFFSET 3.10165 -0.590103 1.0647
                  CHANNELS 3 Zrotation Xrotation Yrotation
                  End Site
                  {
                    OFFSET 2.48547 -0.328903 0.83742
                  }
                }
              }
              JOINT lRing1
              {
                OFFSET 8.82822 0.546677 1.51678
                CHANNELS 3 Zrotation Xrotation Yrotation
                JOINT lRing2
                {
                  OFFSET 2.60934 -0.819778 -0.0198488
                  CHANNELS 3 Zrotation Xrotation Yrotation
                  End Site
                  {
                    OFFSET 2.33842 -0.294052 0.168128
                  }
                }
              }
              JOINT lPinky1
              {
                OFFSET 8.27202 -0.0477905 -0.4584
                CHANNELS 3 Zrotation Xrotation Yrotation
                JOINT lPinky2
                {
                  OFFSET 1.82734 -0.647385 -0.700984
                  CHANNELS 3 Zrotation Xrotation Yrotation
                  End Site
                  {
                    OFFSET 1.69225 -0.51767 -0.607171
                  }
                }
              }
            }
          }
        }
      }
    }
  }
  JOINT rButtock
  {
    OFFSET -8.77824 4.35084 1.2192
    CHANNELS 3 Zrotation Xrotation Yrotation
    JOINT rThigh
    {
      OFFSET 0 -1.70687 -2.19456
      CHANNELS 3 Zrotation Xrotation Yrotation
      JOINT rShin
      {
        OFFSET 0 -36.8199 0.73152
        CHANNELS 3 Zrotation Xrotation Yrotation
        JOINT rFoot
        {
          OFFSET 0.73152 -45.1104 -5.12064
          CHANNELS 3 Zrotation Xrotation Yrotation
          End Site
          {
            OFFSET -1.1221 -3.69964 12.103
          }
        }
      }
    }
  }
  JOINT lButtock
  {
    OFFSET 8.77824 4.35084 1.2192
    CHANNELS 3 Zrotation Xrotation Yrotation
    JOINT lThigh
    {
      OFFSET 0 -1.70687 -2.19456
      CHANNELS 3 Zrotation Xrotation Yrotation
      JOINT lShin
      {
        OFFSET 0 -36.8199 0.73152
        CHANNELS 3 Zrotation Xrotation Yrotation
        JOINT lFoot
        {
          OFFSET -0.73152 -45.1104 -5.12064
          CHANNELS 3 Zrotation Xrotation Yrotation
          End Site
          {
            OFFSET 1.1221 -3.69964 12.103
          }
        }
      }
    }
  }
}
MOTION
Frames:	9
Frame Time:	0.00833333
-102.327 98.0854 27.0503 -21.4187 -23.791 44.064 -11.7854 24.2368 8.59651 1.04467 -3.82265 2.03835 5.36178 -0.869623 11.5144 -3.68672 -11.1971 21.0149 -0 0 0 -0 0 0 3.84156e-013 -5.36132e-013 5.49471e-013 43.2249 12.6632 -11.5679 -15.0227 -7.80972 27.6362 -0.464475 -19.011 -2.77536 4.16162e-009 -1.4826e-008 6.65312e-009 7.10071e-009 -2.52404e-008 1.15698e-008 4.16162e-009 -1.4826e-008 6.65312e-009 7.73091 5.47488 0.417314 4.16162e-009 -1.4826e-008 6.65312e-009 2.90554 0.965183 0.102902 4.16163e-009 -1.4826e-008 6.65313e-009 10.2786 0.731801 0.0259123 4.16162e-009 -1.4826e-008 6.65313e-009 2.22167 -0.733487 -0.20892 3.83947e-013 -5.36163e-013 5.49171e-013 -7.67578 3.13725 0.461193 15.2287 -7.99385 -28.0504 0.0799728 -7.95874 1.12613 4.76508e-009 -3.36184e-009 7.63015e-009 8.1955e-009 -5.79584e-009 1.32274e-008 4.76508e-009 -3.36184e-009 7.63015e-009 -7.73091 5.47488 -0.417314 4.76508e-009 -3.36184e-009 7.63016e-009 -2.90554 0.965183 -0.102902 4.76508e-009 -3.36184e-009 7.63016e-009 -10.2786 0.731801 -0.0259123 4.76509e-009 -3.36184e-009 7.63015e-009 -2.22167 -0.733487 0.20892 -2.03217e-016 0 -3.88251e-019 -30.1749 -11.4124 -16.6659 -0.0161941 14.805 0.16835 -8.23116 -17.6933 -25.0572 2.03217e-016 0 3.88251e-019 38.1508 -5.38983 23.5751 0.21456 29.9629 -0.419197 -0.869624 11.4666 6.48539 
-101.423 98.5239 27.0604 -21.1954 -24.2472 44.0731 -11.6779 24.491 8.21619 1.11306 -3.69144 1.94118 5.7122 -0.747561 11.7286 -3.85416 -10.9221 21.3402 -0 0 0 -0 0 0 5.64627e-013 -7.17197e-013 6.20457e-013 41.3609 13.1182 -11.6834 -15.2339 -7.99442 28.0714 -0.484598 -19.3922 -2.83562 4.77259e-009 -1.56948e-008 7.35303e-009 8.13992e-009 -2.66529e-008 1.27938e-008 4.77259e-009 -1.56948e-008 7.35302e-009 7.73091 5.47488 0.417314 4.77258e-009 -1.56948e-008 7.35303e-009 2.90554 0.965183 0.102902 4.77259e-009 -1.56948e-008 7.35303e-009 10.2786 0.731801 0.0259123 4.77258e-009 -1.56948e-008 7.35304e-009 2.22167 -0.733487 -0.20892 5.64408e-013 -7.17234e-013 6.20158e-013 -6.98203 3.08754 -1.52302 14.7087 -7.54072 -26.9911 0.0684324 -7.44313 1.05205 7.92939e-009 -4.73886e-009 8.0805e-009 1.36674e-008 -8.17419e-009 1.40183e-008 7.92939e-009 -4.73886e-009 8.0805e-009 -7.73091 5.47488 -0.417314 7.92939e-009 -4.73887e-009 8.08051e-009 -2.90554 0.965183 -0.102902 7.92938e-009 -4.73887e-009 8.08051e-009 -10.2786 0.731801 -0.0259123 7.92939e-009 -4.73887e-009 8.0805e-009 -2.22167 -0.733487 0.20892 -2.03217e-016 0 -3.88251e-019 -30.4474 -11.623 -16.5935 -0.0209817 14.3353 0.139067 -8.37434 -17.825 -25.3509 2.03217e-016 0 3.88251e-019 38.6144 -5.0531 24.0393 0.222234 30.6042 -0.430037 -0.821401 11.4217 6.0778 
-100.517 98.861 27.0431 -20.9474 -24.6134 44.1829 -11.5772 24.6926 7.83946 1.12466 -3.54465 1.84296 5.99442 -0.541735 11.8964 -3.92954 -10.7791 21.609 -0 0 0 -0 0 0 8.25472e-013 -1.15174e-012 5.54689e-013 39.5385 13.5457 -11.9105 -15.458 -8.19397 28.5349 -0.500394 -19.6867 -2.88234 5.77762e-009 -1.90703e-008 6.14524e-009 9.89046e-009 -3.25139e-008 1.072e-008 5.77762e-009 -1.90703e-008 6.14524e-009 7.73091 5.47488 0.417314 5.77762e-009 -1.90703e-008 6.14524e-009 2.90554 0.965183 0.102902 5.77762e-009 -1.90703e-008 6.14524e-009 10.2786 0.731801 0.0259123 5.77761e-009 -1.90703e-008 6.14525e-009 2.22167 -0.733487 -0.20892 8.2527e-013 -1.15177e-012 5.54419e-013 -6.35432 2.93931 -3.60102 14.2008 -7.11814 -25.9598 0.0574083 -6.80078 0.960344 1.03343e-008 -6.64601e-009 6.97061e-009 1.78282e-008 -1.14723e-008 1.21003e-008 1.03342e-008 -6.64602e-009 6.97061e-009 -7.73091 5.47488 -0.417314 1.03342e-008 -6.64602e-009 6.97061e-009 -2.90554 0.965183 -0.102902 1.03342e-008 -6.64602e-009 6.97062e-009 -10.2786 0.731801 -0.0259123 1.03343e-008 -6.64602e-009 6.97061e-009 -2.22167 -0.733487 0.20892 -2.03217e-016 0 -3.88251e-019 -30.8667 -11.8352 -16.6807 -0.0242437 13.952 0.116822 -8.53828 -17.9515 -25.6853 2.03217e-016 0 3.88251e-019 38.8564 -4.80061 24.3062 0.22655 30.9449 -0.434513 -0.738805 10.6781 6.016 
-99.5657 99.1621 27.0778 -20.6821 -24.9237 44.3689 -11.4694 24.8617 7.47681 1.09557 -3.38006 1.74763 6.23949 -0.289211 12.0249 -3.9473 -10.7249 21.8209 -0 0 0 -0 0 0 1.14803e-012 -1.74791e-012 4.04909e-013 37.7381 13.9696 -12.2096 -15.69 -8.40369 29.018 -0.51327 -19.9266 -2.92047 7.03914e-009 -2.39603e-008 3.69143e-009 1.21032e-008 -4.10634e-008 6.49278e-009 7.03915e-009 -2.39603e-008 3.69142e-009 7.73091 5.47488 0.417314 7.03914e-009 -2.39603e-008 3.69143e-009 2.90554 0.965183 0.102902 7.03914e-009 -2.39603e-008 3.69143e-009 10.2786 0.731801 0.0259123 7.03914e-009 -2.39603e-008 3.69144e-009 2.22167 -0.733487 -0.20892 1.14787e-012 -1.74792e-012 4.04685e-013 -5.81829 2.67788 -5.77467 13.6913 -6.71148 -24.9301 0.0477047 -6.12624 0.864351 1.24922e-008 -8.97933e-009 4.79374e-009 2.15642e-008 -1.55094e-008 8.3311e-009 1.24922e-008 -8.97933e-009 4.79375e-009 -7.73091 5.47488 -0.417314 1.24922e-008 -8.97933e-009 4.79375e-009 -2.90554 0.965183 -0.102902 1.24922e-008 -8.97933e-009 4.79375e-009 -10.2786 0.731801 -0.0259123 1.24922e-008 -8.97933e-009 4.79374e-009 -2.22167 -0.733487 0.20892 -2.03217e-016 0 -3.88251e-019 -31.3765 -12.0338 -16.8813 -0.0260819 13.6422 0.0997605 -8.70857 -18.0725 -26.0276 2.03217e-016 0 3.88251e-019 38.944 -4.62221 24.3963 0.228486 31.0847 -0.435786 -0.611307 9.32706 6.17952 
-98.5013 99.4092 27.1275 -20.3994 -25.1907 44.6108 -11.3834 25.0287 7.11468 1.0841 -3.21548 1.64972 6.49185 -0.0809479 12.1398 -3.98518 -10.6404 21.9986 -0 0 0 -0 0 0 1.41185e-012 -2.27877e-012 2.24511e-013 35.9046 14.3377 -12.5141 -15.9133 -8.60802 29.4876 -0.523653 -20.1192 -2.95113 7.97756e-009 -2.81514e-008 9.32578e-010 1.37633e-008 -4.84341e-008 1.73224e-009 7.97757e-009 -2.81514e-008 9.32572e-010 7.73091 5.47488 0.417314 7.97756e-009 -2.81514e-008 9.32578e-010 2.90554 0.965183 0.102902 7.97756e-009 -2.81514e-008 9.32577e-010 10.2786 0.731801 0.0259123 7.97755e-009 -2.81514e-008 9.32585e-010 2.22167 -0.733487 -0.20892 1.41173e-012 -2.27877e-012 2.24334e-013 -5.46194 2.29555 -7.95409 13.2041 -6.33389 -23.9584 0.0369933 -5.35476 0.754827 1.37863e-008 -1.08974e-008 2.2865e-009 2.38071e-008 -1.88292e-008 3.98801e-009 1.37863e-008 -1.08975e-008 2.28651e-009 -7.73091 5.47488 -0.417314 1.37863e-008 -1.08975e-008 2.2865e-009 -2.90554 0.965183 -0.102902 1.37863e-008 -1.08975e-008 2.28651e-009 -10.2786 0.731801 -0.0259123 1.37863e-008 -1.08974e-008 2.2865e-009 -2.22167 -0.733487 0.20892 -2.03217e-016 0 -3.88251e-019 -31.9533 -12.2219 -17.1606 -0.0268663 13.3965 0.0888866 -8.87993 -18.179 -26.3625 2.03217e-016 0 3.88251e-019 38.8912 -4.45102 24.3764 0.226927 30.9363 -0.432534 -0.450344 7.66103 6.52973 
-97.7858 99.3776 27.0306 -20.0991 -25.4277 44.8882 -11.3472 25.2243 6.73913 1.14851 -3.0687 1.54373 6.7963 -0.0078168 12.2664 -4.12262 -10.4068 22.1649 -0 0 0 -0 0 0 1.49647e-012 -2.51742e-012 6.6891e-014 33.9801 14.5987 -12.7565 -16.1125 -8.79216 29.9105 -0.532046 -20.2716 -2.97547 8.01328e-009 -2.94302e-008 -1.19031e-009 1.38556e-008 -5.07589e-008 -1.94144e-009 8.01328e-009 -2.94302e-008 -1.19032e-009 7.73091 5.47488 0.417314 8.01328e-009 -2.94301e-008 -1.19031e-009 2.90554 0.965183 0.102902 8.01328e-009 -2.94301e-008 -1.19031e-009 10.2786 0.731801 0.0259123 8.01327e-009 -2.94302e-008 -1.19031e-009 2.22167 -0.733487 -0.20892 1.49638e-012 -2.5174e-012 6.6742e-014 -5.37263 1.7862 -10.0498 12.7653 -5.99997 -23.1011 0.0240377 -4.42156 0.622658 1.35997e-008 -1.1559e-008 1.8548e-010 2.3489e-008 -1.99756e-008 3.4838e-010 1.35997e-008 -1.1559e-008 1.85493e-010 -7.73091 5.47488 -0.417314 1.35997e-008 -1.1559e-008 1.85477e-010 -2.90554 0.965183 -0.102902 1.35997e-008 -1.1559e-008 1.85484e-010 -10.2786 0.731801 -0.0259123 1.35997e-008 -1.1559e-008 1.85471e-010 -2.22167 -0.733487 0.20892 -2.03217e-016 0 -3.88251e-019 -32.573 -12.403 -17.4837 -0.0269984 13.2053 0.0852159 -9.04675 -18.2618 -26.6745 2.03217e-016 0 3.88251e-019 38.711 -4.22064 24.3135 0.22093 30.4122 -0.423555 -0.27034 5.97211 7.02681 
-96.7511 99.393 26.9928 -19.773 -25.6294 45.2088 -11.3877 25.4617 6.33448 1.34102 -2.95095 1.424 7.19062 -0.134961 12.4189 -4.40747 -9.91998 22.3305 -0 0 0 -0 0 0 1.31112e-012 -2.34131e-012 -8.26777e-014 31.9047 14.7933 -12.8989 -16.284 -8.95321 30.2761 -0.539281 -20.3997 -2.99602 6.72172e-009 -2.66563e-008 -2.59383e-009 1.16463e-008 -4.60728e-008 -4.39062e-009 6.72172e-009 -2.66563e-008 -2.59383e-009 7.73091 5.47488 0.417314 6.72172e-009 -2.66563e-008 -2.59383e-009 2.90554 0.965183 0.102902 6.72172e-009 -2.66563e-008 -2.59383e-009 10.2786 0.731801 0.0259123 6.72171e-009 -2.66563e-008 -2.59382e-009 2.22167 -0.733487 -0.20892 1.31104e-012 -2.34128e-012 -8.28299e-014 -5.67191 1.03905 -12.0344 12.3771 -5.71352 -22.3487 0.00865294 -3.17363 0.446381 1.10147e-008 -1.04316e-008 -1.49225e-009 1.90228e-008 -1.80281e-008 -2.55789e-009 1.10147e-008 -1.04317e-008 -1.49223e-009 -7.73091 5.47488 -0.417314 1.10147e-008 -1.04317e-008 -1.49225e-009 -2.90554 0.965183 -0.102902 1.10147e-008 -1.04316e-008 -1.49224e-009 -10.2786 0.731801 -0.0259123 1.10147e-008 -1.04316e-008 -1.49226e-009 -2.22167 -0.733487 0.20892 -2.03217e-016 0 -3.88251e-019 -33.2523 -12.5636 -17.8661 -0.0262927 13.0669 0.0903326 -9.21847 -18.323 -26.9782 2.03217e-016 0 3.88251e-019 38.389 -3.89324 24.2303 0.209633 29.4037 -0.405996 -0.0612502 4.28156 7.61242 
-95.8589 99.2861 26.9461 -19.4235 -25.7903 45.5781 -11.4824 25.7228 5.91163 1.61828 -2.85057 1.29484 7.64412 -0.39988 12.5815 -4.79047 -9.26831 22.4837 -0 0 0 -0 0 0 9.3958e-013 -1.89215e-012 -2.43017e-013 29.7217 14.9314 -12.983 -16.4374 -9.0996 30.6024 -0.544687 -20.4951 -3.01134 4.502e-009 -2.11936e-008 -3.72399e-009 7.83123e-009 -3.67495e-008 -6.38124e-009 4.50201e-009 -2.11936e-008 -3.724e-009 7.73091 5.47488 0.417314 4.502e-009 -2.11936e-008 -3.72399e-009 2.90554 0.965183 0.102902 4.502e-009 -2.11936e-008 -3.72399e-009 10.2786 0.731801 0.0259123 4.50199e-009 -2.11936e-008 -3.72398e-009 2.22167 -0.733487 -0.20892 9.39512e-013 -1.89211e-012 -2.43191e-013 -6.31069 0.1035 -13.9592 12.0334 -5.47065 -21.678 -0.0023221 -1.69072 0.237549 6.61125e-009 -8.06674e-009 -3.07975e-009 1.14122e-008 -1.39406e-008 -5.30848e-009 6.61125e-009 -8.06675e-009 -3.07974e-009 -7.73091 5.47488 -0.417314 6.61125e-009 -8.06675e-009 -3.07975e-009 -2.90554 0.965183 -0.102902 6.61124e-009 -8.06675e-009 -3.07975e-009 -10.2786 0.731801 -0.0259123 6.61126e-009 -8.06674e-009 -3.07976e-009 -2.22167 -0.733487 0.20892 -2.03217e-016 0 -3.88251e-019 -33.9972 -12.7058 -18.3181 -0.0245049 12.9861 0.103226 -9.39381 -18.3664 -27.2754 2.03217e-016 0 3.88251e-019 37.9259 -3.51015 24.0903 0.194816 27.986 -0.382058 0.206629 2.4558 8.3256 
-94.9519 99.1503 26.9026 -19.0677 -25.9241 45.9732 -11.5844 25.991 5.49651 1.89511 -2.75106 1.16574 8.09834 -0.702105 12.7342 -5.20462 -8.62186 22.6125 -0 0 0 -0 0 0 5.23269e-013 -1.33938e-012 -3.66878e-013 27.5262 14.9159 -13.0601 -16.5763 -9.23397 30.8989 -0.54652 -20.5282 -3.01663 2.01009e-009 -1.4585e-008 -4.43398e-009 3.53965e-009 -2.54298e-008 -7.64856e-009 2.0101e-009 -1.4585e-008 -4.43398e-009 7.73091 5.47488 0.417314 2.01009e-009 -1.4585e-008 -4.43397e-009 2.90554 0.965183 0.102902 2.01009e-009 -1.4585e-008 -4.43397e-009 10.2786 0.731801 0.0259123 2.01008e-009 -1.4585e-008 -4.43397e-009 2.22167 -0.733487 -0.20892 5.23207e-013 -1.33932e-012 -3.67074e-013 -7.09594 -0.789959 -15.8522 11.7494 -5.27536 -21.1247 -0.00398362 -0.257251 0.0360787 2.0193e-009 -5.24861e-009 -4.36564e-009 3.4753e-009 -9.06888e-009 -7.53743e-009 2.0193e-009 -5.24861e-009 -4.36563e-009 -7.73091 5.47488 -0.417314 2.0193e-009 -5.24861e-009 -4.36564e-009 -2.90554 0.965183 -0.102902 2.01929e-009 -5.24861e-009 -4.36564e-009 -10.2786 0.731801 -0.0259123 2.01931e-009 -5.24861e-009 -4.36565e-009 -2.22167 -0.733487 0.20892 -2.03217e-016 0 -3.88251e-019 -34.7667 -12.8572 -18.7975 -0.0220205 12.9632 0.121037 -9.55047 -18.3857 -27.531 2.03217e-016 0 3.88251e-019 37.3578 -3.12365 23.8711 0.179181 26.3472 -0.357932 0.54885 0.555582 9.27145 
